<?xml version="1.0" encoding="utf-8"?>
<!-- Generator: Adobe Illustrator 26.0.2, SVG Export Plug-In . SVG Version: 6.00 Build 0)  -->
<svg version="1.1" id="Layer_1" xmlns="http://www.w3.org/2000/svg" xmlns:xlink="http://www.w3.org/1999/xlink" x="0px" y="0px"
	 viewBox="0 0 208 208" style="enable-background:new 0 0 208 208;" xml:space="preserve">
<style type="text/css">
	.st0{fill:#772981;}
	.st1{fill:#53575A;}
</style>
<g>
	<g>
		<path class="st0" d="M53.7,86.4c2.3-2.5,5.2-3.3,8.4-3c4.9,0.4,8.7,4.2,9,9.1c0.1,2.6,0.1,5.2,0.1,7.8c0,2.8,0,5.6,0,8.4
			c0,1.2-0.3,1.4-1.5,1.5c-1,0-2,0-3.1,0c-1.3,0-1.6-0.3-1.6-1.7c0-4.9,0-9.8,0-14.7c0-0.7-0.1-1.4-0.3-2c-0.7-1.9-2.3-2.9-4.4-2.6
			c-1.9,0.2-3.3,1.6-3.6,3.5c-0.1,0.6-0.1,1.3-0.1,1.9c0,4.7,0,9.3,0,14c0,1.4-0.3,1.6-1.6,1.6c-1,0-2,0-3.1,0
			c-1.1,0-1.5-0.3-1.5-1.5c0-4.9,0-9.9,0-14.8c0-0.8-0.1-1.6-0.4-2.3c-0.7-1.9-2.6-2.8-4.7-2.4c-1.9,0.4-3.2,2-3.3,4.3
			c0,4.7,0,9.5,0,14.2c0,2.5,0,2.5-2.5,2.5c-0.8,0-1.6,0-2.4,0c-0.8,0-1.2-0.4-1.2-1.2c0-5.4-0.1-10.8,0.1-16.1
			c0.2-4.2,2.4-7.3,6.4-8.7c3.9-1.4,7.6-1,10.7,2C53.4,86.1,53.5,86.2,53.7,86.4z"/>
		<path class="st0" d="M108.6,86.4c1.4-1.5,3.1-2.5,5.1-2.9c6.4-1.1,12,2.8,12.3,9.1c0.2,5.4,0.1,10.9,0.1,16.4
			c0,0.8-0.4,1.2-1.3,1.2c-1.1,0-2.3,0-3.4,0c-1.2,0-1.5-0.3-1.5-1.5c0-4.9,0-9.9,0-14.8c0-0.7-0.1-1.3-0.3-2
			c-0.5-1.8-2.2-2.9-4.1-2.8c-2,0.1-3.5,1.4-3.9,3.2c-0.1,0.6-0.1,1.2-0.1,1.8c0,4.8,0,9.5,0,14.3c0,1.6-0.2,1.8-1.8,1.8
			c-0.9,0-1.8,0-2.7,0c-1.4,0-1.7-0.3-1.7-1.7c0-5,0-10,0-15.1c0-3.5-3.5-5.5-6.3-3.7c-1.5,0.9-2,2.3-2,3.9c0,4.9,0,9.9,0,14.8
			c0,1.5-0.2,1.7-1.7,1.7c-1,0-2,0-3.1,0c-0.9,0-1.4-0.4-1.4-1.3c0-5.3-0.1-10.6,0-15.9c0.1-4.2,2.3-7.4,6.3-8.9
			c4-1.5,7.7-1.1,10.9,2.1C108.3,86.2,108.4,86.2,108.6,86.4z"/>
		<path class="st0" d="M143.7,97.1c0-6.6,4.2-12.2,10.3-13.4c7.6-1.6,14.7,3.2,15.9,10.9c1,6.3-1.8,12.2-7.1,14.8
			C153.8,113.8,143.7,107.3,143.7,97.1z M149.8,97.3c0.1,0.5,0.2,1.3,0.4,2.1c0.8,2.8,3.3,5,6.1,5.3c2.6,0.3,5.3-1.3,6.7-3.9
			c1.6-3,1.1-6.7-1.1-9.2c-2.5-2.8-6.2-3.2-9.1-0.9C150.9,92.3,150,94.5,149.8,97.3z"/>
		<path class="st0" d="M84.2,97c0,3.9,0,7.7,0,11.6c0,1.2-0.3,1.5-1.5,1.5c-1,0-2,0-3,0c-1.4,0-1.6-0.2-1.6-1.6c0-4.7,0-9.3,0-14
			c0-3,0-6.1,0-9.1c0-1.3,0.2-1.6,1.6-1.6c1,0,2,0,3,0c1.3,0,1.6,0.3,1.6,1.7C84.2,89.4,84.2,93.2,84.2,97z"/>
		<path class="st0" d="M139.1,97c0,3.9,0,7.7,0,11.6c0,1.2-0.3,1.5-1.5,1.5c-1,0-2,0-3.1,0c-1.3,0-1.6-0.3-1.6-1.6
			c0-6,0-12.1,0-18.1c0-1.7,0-3.4,0-5.1c0-1.2,0.3-1.5,1.5-1.5c1.1,0,2.2,0,3.3,0c1.1,0,1.4,0.3,1.4,1.4
			C139.1,89.2,139.1,93.1,139.1,97z"/>
		<path class="st0" d="M81.1,79c-3.3,0-3,0.2-3.1-3c0-2.9-0.1-2.8,2.7-2.8c0.7,0,1.4,0,2.2,0c0.8,0,1.2,0.4,1.2,1.2
			c0,1.1,0,2.2,0,3.4c0,0.8-0.4,1.2-1.2,1.2C82.4,79,81.7,79,81.1,79z"/>
		<path class="st0" d="M136,73.2c0.7,0,1.3,0,2,0c0.7,0,1.1,0.4,1.1,1.1c0,1.2,0,2.4,0,3.5c0,0.7-0.4,1.1-1.1,1.1
			c-1.3,0-2.6,0-3.8,0c-0.8,0-1.2-0.4-1.2-1.2c0-1.1,0-2.3,0-3.5c0-0.7,0.4-1.1,1.2-1.2C134.7,73.2,135.4,73.2,136,73.2z"/>
	</g>
	<g>
		<g>
			<path class="st1" d="M107,124.3h1.3v3h0c0.1-0.1,0.2-0.3,0.3-0.4c0.1-0.1,0.3-0.2,0.4-0.3c0.1-0.1,0.3-0.1,0.5-0.2
				c0.2,0,0.3-0.1,0.5-0.1c0.5,0,0.9,0.1,1.2,0.3c0.3,0.2,0.6,0.4,0.9,0.7c0.2,0.3,0.4,0.6,0.5,1s0.2,0.8,0.2,1.2
				c0,0.4,0,0.8-0.1,1.2c-0.1,0.4-0.3,0.7-0.5,1c-0.2,0.3-0.5,0.5-0.8,0.7c-0.3,0.2-0.7,0.3-1.1,0.3c-0.2,0-0.4,0-0.6,0
				c-0.2,0-0.4-0.1-0.6-0.1c-0.2-0.1-0.4-0.2-0.5-0.3c-0.1-0.1-0.3-0.3-0.4-0.5h0v0.8H107V124.3z M111.6,129.5c0-0.3,0-0.5-0.1-0.8
				c-0.1-0.3-0.2-0.5-0.3-0.7c-0.1-0.2-0.3-0.4-0.5-0.5c-0.2-0.1-0.4-0.2-0.7-0.2c-0.6,0-1,0.2-1.3,0.6c-0.3,0.4-0.4,0.9-0.4,1.5
				c0,0.3,0,0.6,0.1,0.8s0.2,0.5,0.3,0.7c0.1,0.2,0.3,0.3,0.5,0.4c0.2,0.1,0.4,0.2,0.7,0.2c0.3,0,0.6-0.1,0.8-0.2
				c0.2-0.1,0.4-0.3,0.5-0.5c0.1-0.2,0.2-0.4,0.3-0.7C111.6,130,111.6,129.8,111.6,129.5z"/>
			<path class="st1" d="M113.4,126.5h1.4l1.6,4.4h0l1.5-4.4h1.4l-2.3,6.3c-0.1,0.3-0.2,0.5-0.3,0.8c-0.1,0.3-0.2,0.5-0.4,0.7
				c-0.1,0.2-0.3,0.3-0.6,0.4s-0.5,0.2-0.8,0.2c-0.3,0-0.6,0-0.9-0.1v-1.1c0.1,0,0.2,0,0.3,0c0.1,0,0.2,0,0.3,0c0.1,0,0.3,0,0.4-0.1
				c0.1,0,0.2-0.1,0.3-0.2c0.1-0.1,0.1-0.2,0.2-0.3c0-0.1,0.1-0.2,0.1-0.3l0.1-0.5L113.4,126.5z"/>
			<path class="st1" d="M123.4,124.3h4c0.7,0,1.3,0.2,1.8,0.5c0.4,0.3,0.7,0.8,0.7,1.5c0,0.4-0.1,0.8-0.3,1.1
				c-0.2,0.3-0.5,0.5-0.9,0.7v0c0.5,0.1,0.9,0.3,1.1,0.7c0.3,0.4,0.4,0.8,0.4,1.4c0,0.3-0.1,0.6-0.2,0.9c-0.1,0.3-0.3,0.5-0.5,0.7
				c-0.3,0.2-0.6,0.4-0.9,0.5s-0.8,0.2-1.4,0.2h-3.8V124.3z M124.8,127.7h2.3c0.3,0,0.6-0.1,0.9-0.3s0.3-0.5,0.3-0.8
				c0-0.4-0.1-0.7-0.3-0.9c-0.2-0.2-0.5-0.3-0.9-0.3h-2.3V127.7z M124.8,131.3h2.5c0.4,0,0.8-0.1,1-0.3c0.2-0.2,0.4-0.6,0.4-1
				s-0.1-0.7-0.4-0.9c-0.2-0.2-0.6-0.3-1-0.3h-2.5V131.3z"/>
			<path class="st1" d="M134,132.6c-0.5,0-0.9-0.1-1.3-0.2s-0.7-0.4-0.9-0.7c-0.3-0.3-0.4-0.6-0.6-1c-0.1-0.4-0.2-0.8-0.2-1.3
				c0-0.4,0.1-0.9,0.2-1.3c0.1-0.4,0.3-0.7,0.6-1s0.6-0.5,0.9-0.7c0.4-0.1,0.8-0.2,1.3-0.2c0.5,0,0.9,0.1,1.3,0.2
				c0.4,0.1,0.7,0.4,0.9,0.7c0.3,0.3,0.4,0.6,0.6,1c0.1,0.4,0.2,0.8,0.2,1.3c0,0.5-0.1,0.9-0.2,1.3c-0.1,0.4-0.3,0.7-0.6,1
				c-0.3,0.3-0.6,0.5-0.9,0.7C134.9,132.5,134.5,132.6,134,132.6z M134,131.6c0.3,0,0.6-0.1,0.8-0.2c0.2-0.1,0.4-0.3,0.5-0.5
				c0.1-0.2,0.2-0.4,0.3-0.7s0.1-0.5,0.1-0.8s0-0.5-0.1-0.8s-0.2-0.5-0.3-0.7c-0.1-0.2-0.3-0.4-0.5-0.5c-0.2-0.1-0.5-0.2-0.8-0.2
				s-0.6,0.1-0.8,0.2c-0.2,0.1-0.4,0.3-0.5,0.5c-0.1,0.2-0.2,0.4-0.3,0.7s-0.1,0.5-0.1,0.8s0,0.5,0.1,0.8s0.2,0.5,0.3,0.7
				c0.1,0.2,0.3,0.4,0.5,0.5C133.4,131.5,133.7,131.6,134,131.6z"/>
			<path class="st1" d="M139.7,129.3l-2.1-2.8h1.6l1.2,1.8l1.3-1.8h1.5l-2,2.7l2.3,3.2h-1.6l-1.5-2.2l-1.5,2.2h-1.6L139.7,129.3z"/>
			<path class="st1" d="M144.3,124.3h1.3v8.2h-1.3V124.3z"/>
			<path class="st1" d="M147.1,124.3h1.3v1.2h-1.3V124.3z M147.1,126.5h1.3v5.9h-1.3V126.5z"/>
			<path class="st1" d="M155.3,132.2c0,0.9-0.3,1.6-0.7,2c-0.5,0.4-1.2,0.7-2.2,0.7c-0.3,0-0.6,0-0.9-0.1s-0.6-0.2-0.8-0.3
				s-0.5-0.3-0.6-0.6s-0.3-0.5-0.3-0.9h1.3c0,0.2,0.1,0.3,0.2,0.4c0.1,0.1,0.2,0.2,0.3,0.3s0.3,0.1,0.4,0.1c0.1,0,0.3,0,0.5,0
				c0.5,0,0.9-0.1,1.2-0.4s0.4-0.6,0.4-1.1v-0.9h0c-0.2,0.3-0.4,0.6-0.7,0.8c-0.3,0.2-0.7,0.3-1,0.3c-0.5,0-0.9-0.1-1.2-0.3
				c-0.3-0.2-0.6-0.4-0.8-0.7c-0.2-0.3-0.4-0.6-0.5-1c-0.1-0.4-0.1-0.8-0.1-1.2c0-0.4,0.1-0.8,0.2-1.1c0.1-0.4,0.3-0.7,0.5-1
				c0.2-0.3,0.5-0.5,0.8-0.7c0.3-0.2,0.7-0.2,1.1-0.2c0.4,0,0.7,0.1,1,0.2s0.6,0.4,0.7,0.7h0v-0.8h1.3L155.3,132.2L155.3,132.2z
				 M152.4,131.4c0.3,0,0.5-0.1,0.7-0.2c0.2-0.1,0.4-0.3,0.5-0.5c0.1-0.2,0.2-0.4,0.3-0.7c0.1-0.2,0.1-0.5,0.1-0.7
				c0-0.3,0-0.5-0.1-0.7c-0.1-0.2-0.1-0.4-0.3-0.6c-0.1-0.2-0.3-0.3-0.5-0.4c-0.2-0.1-0.4-0.2-0.7-0.2c-0.3,0-0.5,0.1-0.7,0.2
				c-0.2,0.1-0.4,0.3-0.5,0.5c-0.1,0.2-0.2,0.4-0.3,0.7c-0.1,0.3-0.1,0.5-0.1,0.7s0,0.5,0.1,0.7c0.1,0.2,0.1,0.4,0.3,0.6
				c0.1,0.2,0.3,0.3,0.5,0.4C151.9,131.4,152.1,131.4,152.4,131.4z"/>
			<path class="st1" d="M156.6,124.3h1.3v3h0c0.2-0.3,0.4-0.5,0.7-0.7c0.3-0.2,0.7-0.3,1.1-0.3c0.7,0,1.2,0.2,1.6,0.5
				c0.4,0.3,0.6,0.8,0.6,1.5v4.1h-1.3v-3.7c0-0.5-0.1-0.8-0.3-1c-0.2-0.2-0.5-0.3-0.9-0.3c-0.2,0-0.4,0-0.6,0.1
				c-0.2,0.1-0.3,0.2-0.4,0.3s-0.2,0.3-0.3,0.5c-0.1,0.2-0.1,0.4-0.1,0.6v3.5h-1.3L156.6,124.3L156.6,124.3z"/>
			<path class="st1" d="M162.6,126.5h1v-1.8h1.3v1.8h1.2v1h-1.2v3.2c0,0.1,0,0.3,0,0.4c0,0.1,0,0.2,0.1,0.3s0.1,0.1,0.2,0.1
				c0.1,0,0.2,0,0.3,0c0.1,0,0.2,0,0.3,0s0.2,0,0.3,0v1c-0.1,0-0.3,0-0.4,0c-0.1,0-0.3,0-0.4,0c-0.3,0-0.6,0-0.8-0.1
				c-0.2-0.1-0.4-0.2-0.5-0.3c-0.1-0.1-0.2-0.3-0.2-0.5c0-0.2-0.1-0.4-0.1-0.7v-3.5h-1L162.6,126.5L162.6,126.5z"/>
		</g>
		<g>
			<path class="st1" d="M168.1,125.2c0.1-0.3,0.3-0.4,0.4-0.6s0.4-0.3,0.7-0.4c0.3-0.1,0.5-0.1,0.8-0.1s0.5,0,0.8,0.1
				c0.3,0.1,0.5,0.2,0.7,0.4c0.2,0.2,0.3,0.4,0.4,0.6c0.1,0.2,0.2,0.5,0.2,0.8s-0.1,0.6-0.2,0.8c-0.1,0.3-0.3,0.4-0.4,0.6
				c-0.2,0.2-0.4,0.3-0.7,0.4c-0.3,0.1-0.5,0.1-0.8,0.1s-0.5,0-0.8-0.1c-0.2-0.1-0.5-0.2-0.7-0.4s-0.3-0.4-0.4-0.6
				c-0.1-0.2-0.2-0.5-0.2-0.8C167.9,125.7,168,125.4,168.1,125.2z M168.6,126.6c0.1,0.2,0.2,0.4,0.3,0.5c0.1,0.1,0.3,0.3,0.5,0.3
				c0.2,0.1,0.4,0.1,0.6,0.1c0.2,0,0.4,0,0.6-0.1c0.2-0.1,0.3-0.2,0.5-0.3c0.1-0.1,0.2-0.3,0.3-0.5s0.1-0.4,0.1-0.6s0-0.4-0.1-0.6
				c-0.1-0.2-0.2-0.4-0.3-0.5c-0.1-0.1-0.3-0.3-0.5-0.3c-0.2-0.1-0.4-0.1-0.6-0.1c-0.2,0-0.4,0-0.6,0.1c-0.2,0.1-0.3,0.2-0.5,0.3
				c-0.1,0.1-0.2,0.3-0.3,0.5c-0.1,0.2-0.1,0.4-0.1,0.6C168.5,126.2,168.5,126.4,168.6,126.6z M170,124.9c0.3,0,0.5,0,0.6,0.1
				c0.1,0.1,0.2,0.3,0.2,0.5c0,0.1,0,0.2,0,0.3c0,0.1-0.1,0.1-0.1,0.2c0,0-0.1,0.1-0.2,0.1c-0.1,0-0.1,0-0.2,0l0.6,1h-0.5l-0.6-1
				h-0.3v1h-0.4v-2.2L170,124.9L170,124.9z M170,125.8c0.1,0,0.2,0,0.3,0c0.1,0,0.1-0.1,0.1-0.3c0-0.1,0-0.1,0-0.1s-0.1-0.1-0.1-0.1
				c0,0-0.1,0-0.1,0s-0.1,0-0.1,0h-0.4v0.6L170,125.8L170,125.8z"/>
		</g>
	</g>
	<path class="st0" d="M166.4,80.6c0-0.3,0-0.5,0.1-0.7c0.1-0.2,0.2-0.5,0.3-0.7c0.1-0.2,0.3-0.4,0.4-0.6c0.2-0.2,0.4-0.3,0.6-0.4
		s0.4-0.2,0.7-0.3c0.2-0.1,0.5-0.1,0.7-0.1s0.5,0,0.7,0.1c0.2,0.1,0.5,0.2,0.7,0.3c0.2,0.1,0.4,0.3,0.6,0.4c0.2,0.2,0.3,0.4,0.4,0.6
		c0.1,0.2,0.2,0.4,0.3,0.7c0.1,0.2,0.1,0.5,0.1,0.7c0,0.3,0,0.5-0.1,0.7s-0.2,0.5-0.3,0.7c-0.1,0.2-0.3,0.4-0.4,0.6
		c-0.2,0.2-0.4,0.3-0.6,0.4c-0.2,0.1-0.4,0.2-0.7,0.3c-0.2,0.1-0.5,0.1-0.7,0.1s-0.5,0-0.7-0.1c-0.2-0.1-0.5-0.2-0.7-0.3
		c-0.2-0.1-0.4-0.3-0.6-0.4c-0.2-0.2-0.3-0.4-0.4-0.6s-0.2-0.4-0.3-0.7C166.4,81.1,166.4,80.8,166.4,80.6z M166.9,80.6
		c0,0.3,0.1,0.6,0.2,0.9c0.1,0.3,0.3,0.5,0.5,0.7c0.2,0.2,0.4,0.4,0.7,0.5c0.3,0.1,0.6,0.2,0.9,0.2c0.3,0,0.6-0.1,0.9-0.2
		c0.3-0.1,0.5-0.3,0.7-0.5c0.2-0.2,0.4-0.4,0.5-0.7s0.2-0.6,0.2-0.9c0-0.3-0.1-0.6-0.2-0.9c-0.1-0.3-0.3-0.5-0.5-0.7
		c-0.2-0.2-0.4-0.4-0.7-0.5c-0.3-0.1-0.6-0.2-0.9-0.2s-0.6,0.1-0.9,0.2c-0.3,0.1-0.5,0.3-0.7,0.5c-0.2,0.2-0.4,0.4-0.5,0.7
		C167,79.9,166.9,80.2,166.9,80.6z M170.3,79.9c0,0.2,0,0.4-0.1,0.6c-0.1,0.1-0.2,0.2-0.4,0.3l0.9,1.5h-1l-0.7-1.3h-0.2v1.3H168
		v-3.4h1c0.4,0,0.8,0.1,1,0.3C170.2,79.3,170.3,79.5,170.3,79.9z M168.9,80.4h0.1c0.2,0,0.3,0,0.4-0.1c0.1-0.1,0.1-0.2,0.1-0.4
		c0-0.1,0-0.2,0-0.2c0-0.1,0-0.1-0.1-0.1c0,0-0.1-0.1-0.1-0.1c-0.1,0-0.1,0-0.2,0h-0.1V80.4z"/>
</g>
</svg>
